<?xml version="1.0" encoding="UTF-8" standalone="no"?>
<!-- Created with Inkscape (http://www.inkscape.org/) -->

<svg
   width="149.86612mm"
   height="138.89668mm"
   viewBox="0 0 149.86612 138.89668"
   version="1.1"
   id="svg1"
   xml:space="preserve"
   inkscape:version="1.4.2 (ebf0e940d0, 2025-05-08)"
   sodipodi:docname="treefmtea.svg"
   xmlns:inkscape="http://www.inkscape.org/namespaces/inkscape"
   xmlns:sodipodi="http://sodipodi.sourceforge.net/DTD/sodipodi-0.dtd"
   xmlns="http://www.w3.org/2000/svg"
   xmlns:svg="http://www.w3.org/2000/svg"><sodipodi:namedview
     id="namedview1"
     pagecolor="#ffffff"
     bordercolor="#000000"
     borderopacity="0.25"
     inkscape:showpageshadow="2"
     inkscape:pageopacity="0.0"
     inkscape:pagecheckerboard="0"
     inkscape:deskcolor="#d1d1d1"
     inkscape:document-units="mm"
     inkscape:zoom="0.89452791"
     inkscape:cx="287.30238"
     inkscape:cy="372.82235"
     inkscape:window-width="2556"
     inkscape:window-height="1406"
     inkscape:window-x="0"
     inkscape:window-y="30"
     inkscape:window-maximized="1"
     inkscape:current-layer="g2" /><defs
     id="defs1" /><g
     inkscape:label="Layer 1"
     inkscape:groupmode="layer"
     id="layer1"
     transform="translate(-28.40234,-56.346658)"><g
       id="g1"
       transform="matrix(0.07345942,0,0,0.07345942,18.133113,50.551575)"><path
         d="m 434.2719,467.91541 c 0,0 -39.44411,19.33535 -39.4441,60.32628 0,40.99094 39.4441,60.32629 39.4441,60.32629 0,0 39.44411,-19.33535 39.44411,-60.32629 0,-40.99093 -39.44411,-60.32628 -39.44411,-60.32628 z m 11.60121,-246.71903 c 0,0 -39.44411,19.33534 -39.44411,60.32628 0,40.99094 39.44411,60.32628 39.44411,60.32628 0,0 39.44411,-19.33534 39.44411,-60.32628 0,-40.99094 -39.44411,-60.32628 -39.44411,-60.32628 z M 350.7432,367.3716 c 0,0 39.44411,-19.33535 39.44411,-60.32628 0,-40.99094 -39.44411,-60.32629 -39.44411,-60.32629 0,0 -39.44411,19.33535 -39.44411,60.32629 0,40.99093 39.44411,60.32628 39.44411,60.32628 z m 37.12387,-125.29305 c 0,0 39.44411,-19.33535 39.44411,-60.32628 0,-40.99094 -39.44411,-60.32629 -39.44411,-60.32629 0,0 -39.44411,19.33535 -39.44411,60.32629 0,40.99093 39.44411,60.32628 39.44411,60.32628 z M 476.03625,78.888218 c 0,0 -39.44411,19.335347 -39.44411,60.326282 0,40.99094 39.44411,60.32629 39.44411,60.32628 0,0 39.44411,-19.33534 39.44411,-60.32628 0,-41.764348 -39.44411,-60.326282 -39.44411,-60.326282 z M 679.44411,243.62538 c 0,0 39.44411,-19.33535 39.44411,-60.32629 0,-40.99093 -39.44411,-60.32628 -39.44411,-60.32628 0,0 -39.44411,19.33535 -39.44411,60.32628 0,40.99094 39.44411,60.32629 39.44411,60.32629 z m -78.88822,60.32628 c 0,40.99094 39.44411,60.32629 39.44411,60.32629 0,0 39.44411,-19.33535 39.44411,-60.32629 0,-40.99093 -39.44411,-60.32628 -39.44411,-60.32628 0,0 -39.44411,19.33535 -39.44411,60.32628 z M 306.65861,490.34441 c 0,0 -19.33535,-39.44411 -60.32628,-39.44411 -40.99094,0 -60.32629,39.44411 -60.32629,39.44411 0,0 19.33535,39.44411 60.32629,39.44411 40.99093,0 60.32628,-39.44411 60.32628,-39.44411 z m 514.32024,-95.90332 c -40.99094,0 -60.32628,39.44411 -60.32628,39.44411 0,-10e-6 19.33534,39.4441 60.32628,39.4441 40.99094,0 60.32629,-39.4441 60.32629,-39.4441 0,0 -19.33535,-39.44411 -60.32629,-39.44411 z m -174.01812,92.80967 c 0,0 19.33534,39.4441 60.32628,39.4441 40.99094,0 60.32628,-39.4441 60.32628,-39.4441 0,0 -19.33534,-39.44411 -60.32628,-39.44411 -40.99094,0 -60.32628,39.44411 -60.32628,39.44411 z M 454.38067,365.05136 c 0,0 -41.76435,-14.69486 -70.38067,14.69486 -29.38973,29.38973 -14.69486,70.38067 -14.69486,70.38067 0,0 41.76435,14.69486 70.38066,-14.69487 29.38973,-28.61631 14.69486,-70.38066 14.69487,-70.38066 z M 785.40181,228.93051 c 0,0 -41.76435,-14.69486 -70.38066,14.69487 -29.38973,29.38973 -14.69487,70.38066 -14.69487,70.38066 0,0 41.76435,14.69487 70.38067,-14.69486 29.38973,-29.38973 14.69486,-70.38067 14.69486,-70.38067 z M 761.42598,339.5287 c 0,0 -41.76435,-14.69486 -70.38066,14.69486 -29.38973,29.38973 -14.69487,70.38067 -14.69487,70.38067 0,0 41.76435,14.69486 70.38067,-14.69486 29.38973,-28.61632 14.69486,-70.38067 14.69486,-70.38067 z M 314.39275,547.57704 c 0,0 -41.76435,-14.69487 -70.38067,14.69486 -29.38972,29.38973 -14.69486,70.38067 -14.69486,70.38067 0,0 41.76435,14.69486 70.38066,-14.69487 29.38973,-28.61631 14.69487,-70.38066 14.69487,-70.38066 z M 817.11178,179.43202 c 29.38973,-29.38972 14.69487,-70.38066 14.69487,-70.38066 0,0 -41.76435,-14.694864 -70.38067,14.69486 -29.38973,29.38973 -14.69486,70.38067 -14.69486,70.38067 0,0 40.99093,14.69486 70.38066,-14.69487 z M 784.6284,367.3716 c 0,0 41.76435,14.69487 70.38066,-14.69486 29.38973,-29.38973 14.69487,-70.38067 14.69487,-70.38067 0,0 -41.76435,-14.69486 -70.38067,14.69487 -29.38973,29.38973 -14.69486,70.38066 -14.69486,70.38066 z M 588.18127,520.50755 c 0,0 -14.69487,41.76435 14.69486,70.38067 29.38973,29.38973 70.38067,14.69486 70.38067,14.69486 0,0 14.69486,-41.76435 -14.69487,-70.38066 -29.38972,-29.38973 -70.38066,-14.69487 -70.38066,-14.69487 z M 249.42598,351.90332 c 0,0 -14.69486,41.76435 14.69487,70.38067 29.38972,29.38973 70.38066,14.69486 70.38066,14.69486 0,0 14.69487,-41.76435 -14.69486,-70.38066 -28.61632,-29.38973 -70.38067,-14.69487 -70.38067,-14.69487 z m -20.88217,78.88822 c 0,0 14.69486,-41.76435 -14.69487,-70.38066 -29.38972,-29.38973 -70.38066,-14.69487 -70.38066,-14.69487 0,0 -14.69487,41.76435 14.69486,70.38067 29.38973,28.61631 70.38067,14.69486 70.38067,14.69486 z m 65.74018,-104.41087 c 0,0 14.69486,-41.76435 -14.69487,-70.38067 -29.38972,-29.38973 -70.38066,-14.69486 -70.38066,-14.69486 0,0 -14.69486,41.76435 14.69486,70.38066 28.61632,29.38973 70.38067,14.69486 70.38067,14.69487 z m 406.04229,221.19637 c 0,0 -14.69486,41.76435 14.69487,70.38066 29.38973,29.38973 70.38066,14.69487 70.38066,14.69487 0,0 14.69487,-41.76435 -14.69486,-70.38067 -28.61631,-28.61631 -70.38067,-14.69486 -70.38067,-14.69486 z M 571.16616,228.93051 c -29.38973,-29.38972 -70.38066,-14.69486 -70.38066,-14.69486 0,0 -14.69487,41.76435 14.69486,70.38066 29.38973,29.38973 70.38067,14.69487 70.38067,14.69487 0,0 14.69486,-40.99094 -14.69487,-70.38067 z m 47.95167,-17.0151 c 0,0 14.69486,-41.76435 -14.69487,-70.38067 -29.38973,-29.38973 -70.38066,-14.69486 -70.38066,-14.69486 0,0 -14.69487,41.76435 14.69486,70.38066 28.61631,29.38973 70.38067,14.69487 70.38067,14.69487 z M 330.63444,619.50453 c 0,0 -39.44411,19.33535 -39.44411,60.32629 0,40.99093 39.44411,60.32628 39.44411,60.32628 0,0 39.44411,-19.33535 39.44411,-60.32628 0,-40.99094 -39.44411,-60.32629 -39.44411,-60.32629 z"
         fill="#1ca538"
         id="path1" /><path
         d="m 640.77341,385.16012 c -16.24169,-4.64048 -23.97583,39.44411 -37.89728,57.23263 -12.37462,15.46828 -29.38973,13.92145 -51.81873,13.14803 -1.54683,-42.53776 -3.09365,-78.1148 -4.64048,-101.31722 -1.54683,-21.65558 -6.96073,-29.38972 -23.20242,-29.38972 -16.24169,0 -22.429,8.50755 -23.20241,29.38972 -3.09366,51.81874 -6.18732,163.96375 -10.05439,278.42901 C 452.83384,631.10574 409.52266,615.63746 384,583.92749 357.70393,551.44411 347.64955,454.76737 332.18127,458.63444 c -15.46828,3.09366 -11.60121,113.69184 25.52266,160.87009 29.38972,37.12387 74.24773,64.96677 131.48036,67.28701 -3.86707,146.94864 -6.96073,283.06949 -6.96073,283.06949 h 82.75529 c 0,0 -6.18731,-279.97583 -12.37462,-471.00907 36.35045,-1.54682 56.45921,-8.50755 71.15408,-25.52265 17.0151,-18.56194 33.2568,-82.75529 17.0151,-88.16919"
         fill="#65320b"
         id="path2" /></g><g
       style="fill:#000000"
       id="g5"
       transform="matrix(0.41341146,0,0,0.41341146,-1.0583338,42.333333)"><g
         id="g4"
         transform="matrix(0.4009989,0,0,0.4009989,206.30117,206.07068)">
	<g
   id="g3">
		<g
   id="g2">
			
			
		<g
   id="g7"><path
     d="m 361.602,-313.84934 c -0.047,-0.047 -0.098,-0.085 -0.145,-0.131 -27.012,-26.942 -64.287,-43.6 -105.457,-43.6 -82.481,0 -149.333,66.853 -149.333,149.333 0,82.48 66.852,149.332997 149.333,149.332997 82.481,0 149.333,-66.851997 149.333,-149.332997 0,-41.17 -16.658,-78.445 -43.6,-105.457 -0.045,-0.047 -0.084,-0.099 -0.131,-0.145 z M 256,-101.58034 c -58.917,0 -106.667,-47.75 -106.667,-106.667 0,-58.917 47.75,-106.667 106.667,-106.667 21.742,0 41.959,6.509 58.821,17.676 l -73.906,73.906 c -8.331,8.331 -8.331,21.839 0,30.17 8.331,8.331 21.839,8.331 30.17,0 l 73.906,-73.906 c 11.167,16.862 17.676,37.079 17.676,58.821 0,58.917 -47.75,106.667 -106.667,106.667 z"
     id="path2-6" /><text
     xml:space="preserve"
     style="font-size:85.1208px;line-height:1;font-family:Pica;-inkscape-font-specification:Pica;text-align:center;text-decoration-color:#000000;writing-mode:lr-tb;direction:ltr;text-anchor:middle;fill:#ff0000;stroke-width:1.59601"
     x="450.78738"
     y="-306.16736"
     id="text5"><tspan
       sodipodi:role="line"
       id="tspan5"
       style="font-size:85.1208px;fill:#000000;stroke-width:1.59601"
       x="450.78738"
       y="-306.16736">FM</tspan></text><text
     xml:space="preserve"
     style="font-size:85.1208px;line-height:1;font-family:Pica;-inkscape-font-specification:Pica;text-align:center;text-decoration-color:#000000;writing-mode:lr-tb;direction:ltr;text-anchor:middle;fill:#000000;stroke-width:1.59601"
     x="452.57492"
     y="-59.084652"
     id="text6"><tspan
       sodipodi:role="line"
       id="tspan6"
       style="font-size:85.1208px;stroke-width:1.59601"
       x="452.57492"
       y="-59.084652">AM</tspan></text></g><g
   id="g9"
   transform="matrix(5.4761282,0,0,5.4761282,-93.067268,59.953674)">
	<path
   fill="#f76d57"
   d="m 62,29.998 c 0,13.256 -10.745,24 -24,24 -10.871,0 -20.049,-7.23 -23,-17.143 L 14.757,35.998 C 14.263,34.08 14,32.068 14,29.998 v -10 h 47.005 c 0.551,0.004 0.995,0.447 0.995,1 z"
   id="path1-7" />
	<polygon
   fill="#f9ebb2"
   points="53,39.998 47,39.998 47,33.412 50,30.412 53,33.412 "
   id="polygon1" />
	<g
   id="g6">
		<path
   fill="#394240"
   d="M 62,17.998 H 13 12 4 c -2.209,0 -4,1.791 -4,4 v 8 L 0.009,30 H 0 c 0.001,6.625 5.373,11.998 12,11.998 h 2.938 c 4.336,8.316 13.033,14 23.062,14 14.359,0 26,-11.643 26,-26 v -10 c 0,-1.105 -0.896,-2 -2,-2 z m -49.296,18 H 12 C 8.687,35.998 6.001,33.312 6,30 v -6.002 h 6 v 6 c 0,2.066 0.248,4.072 0.704,6 z m -0.704,4 C 6.478,39.998 2.001,35.521 2,30 v -8.002 c 0,-1.105 0.896,-2 2,-2 h 8 v 2 H 5 c -0.553,0 -1,0.447 -1,1 v 7 L 4.01,30 H 4 c 0.001,4.416 3.582,7.998 8,7.998 h 1.26 c 0.22,0.678 0.464,1.346 0.736,2 z m 50,-10 c 0,13.256 -10.745,24 -24,24 -10.871,0 -20.049,-7.23 -23,-17.143 L 14.757,35.998 C 14.263,34.08 14,32.068 14,29.998 v -10 h 35 v 8.586 l -3.707,3.707 C 45.105,32.479 45,32.732 45,32.998 v 8 c 0,0.553 0.447,1 1,1 h 8 c 0.553,0 1,-0.447 1,-1 v -8 c 0,-0.266 -0.105,-0.52 -0.293,-0.707 L 51,28.584 v -8.586 h 10.005 c 0.551,0.004 0.995,0.447 0.995,1 z m -12,0.414 3,3 v 6.586 h -6 v -6.586 z"
   id="path2-5" />
		<path
   fill="#394240"
   d="m 38,9.498 c 0,1.887 -1.025,2.646 -1.055,2.668 -0.46,0.307 -0.584,0.926 -0.277,1.387 0.192,0.289 0.51,0.445 0.833,0.445 0.19,0 0.383,-0.055 0.554,-0.168 C 38.134,13.777 40,12.5 40,9.498 40,7.898 39.325,7.059 38.782,6.383 38.328,5.816 38,5.408 38,4.498 38,2.656 39.017,1.859 39.081,1.81 39.525,1.494 39.634,0.878 39.321,0.427 39.006,-0.028 38.383,-0.139 37.929,0.175 37.851,0.23 36,1.551 36,4.498 36,6.111 36.679,6.957 37.224,7.635 37.691,8.217 38,8.602 38,9.498 Z"
   id="path3" />
		<path
   fill="#394240"
   d="m 50,9.498 c 0,1.887 -1.025,2.646 -1.055,2.668 -0.46,0.307 -0.584,0.926 -0.277,1.387 0.192,0.289 0.51,0.445 0.833,0.445 0.19,0 0.383,-0.055 0.554,-0.168 C 50.134,13.777 52,12.5 52,9.498 52,7.898 51.325,7.059 50.782,6.383 50.328,5.816 50,5.408 50,4.498 50,2.656 51.017,1.859 51.081,1.81 51.525,1.494 51.634,0.878 51.321,0.427 51.006,-0.028 50.383,-0.139 49.929,0.175 49.851,0.23 48,1.551 48,4.498 48,6.111 48.679,6.957 49.224,7.635 49.691,8.217 50,8.602 50,9.498 Z"
   id="path4" />
		<path
   fill="#394240"
   d="m 26,9.498 c 0,1.887 -1.025,2.646 -1.055,2.668 -0.46,0.307 -0.584,0.926 -0.277,1.387 0.192,0.289 0.51,0.445 0.833,0.445 0.19,0 0.383,-0.055 0.554,-0.168 C 26.134,13.777 28,12.5 28,9.498 28,7.898 27.325,7.059 26.782,6.383 26.328,5.816 26,5.408 26,4.498 26,2.656 27.017,1.859 27.081,1.81 27.525,1.494 27.634,0.878 27.321,0.427 27.006,-0.028 26.383,-0.139 25.929,0.175 25.851,0.23 24,1.551 24,4.498 24,6.111 24.679,6.957 25.224,7.635 25.691,8.217 26,8.602 26,9.498 Z"
   id="path5" />
		<path
   fill="#394240"
   d="M 63,57.998 H 13 c -0.553,0 -1,0.447 -1,1 V 60 c 0,2.207 1.791,4 4,4 V 63.998 H 60 V 64 c 2.209,0 4,-1.793 4,-4 v -1.002 c 0,-0.553 -0.447,-1 -1,-1 z M 62,60 c 0,1.104 -0.896,2 -2,2 V 61.998 H 16 V 62 c -1.104,0 -2,-0.896 -2,-2 v -0.002 h 48 z"
   id="path6" />
	</g>
	<g
   id="g8">
		<path
   fill="#b4ccb9"
   d="M 12,37.998 C 7.582,37.998 4.001,34.416 4,30 H 4.01 L 4,29.998 v -7 c 0,-0.553 0.447,-1 1,-1 h 7 v -2 H 4 c -1.104,0 -2,0.895 -2,2 V 30 c 10e-4,5.521 4.478,9.998 10,9.998 h 1.996 c -0.272,-0.654 -0.517,-1.322 -0.736,-2 z"
   id="path7" />
		<path
   fill="#b4ccb9"
   d="M 14,59.998 V 60 c 0,1.104 0.896,2 2,2 V 61.998 H 60 V 62 c 1.104,0 2,-0.896 2,-2 v -0.002 z"
   id="path8" />
	</g>
</g></g>
	</g>
</g></g></g></svg>
